<svg width="20" height="20" viewBox="0 0 20 20" fill="none" xmlns="http://www.w3.org/2000/svg">
<path d="M12.582 0.837891C12.7727 0.856784 12.9521 0.940554 13.0889 1.07715L17.2559 5.24414C17.4121 5.40034 17.4999 5.61211 17.5 5.83301V16.667C17.4999 17.3299 17.2363 17.9658 16.7676 18.4346C16.2988 18.9033 15.663 19.167 15 19.167H5C4.33703 19.167 3.70125 18.9033 3.23242 18.4346C2.76366 17.9658 2.50009 17.3299 2.5 16.667V3.33301C2.50009 2.67008 2.76366 2.03419 3.23242 1.56543C3.70125 1.09669 4.33704 0.833008 5 0.833008H12.5L12.582 0.837891ZM6.66699 13.333C6.20675 13.333 5.83301 13.7068 5.83301 14.167C5.83318 14.6271 6.20686 15 6.66699 15H8.33301C8.79314 15 9.16682 14.6271 9.16699 14.167C9.16699 13.7068 8.79325 13.333 8.33301 13.333H6.66699ZM11.667 13.333C11.2068 13.333 10.833 13.7068 10.833 14.167C10.8332 14.6271 11.2069 15 11.667 15H13.333C13.7931 15 14.1668 14.6271 14.167 14.167C14.167 13.7068 13.7932 13.333 13.333 13.333H11.667ZM6.66699 10C6.20686 10 5.83318 10.3729 5.83301 10.833C5.83301 11.2932 6.20675 11.667 6.66699 11.667H8.33301C8.79325 11.667 9.16699 11.2932 9.16699 10.833C9.16682 10.3729 8.79314 10 8.33301 10H6.66699ZM11.667 10C11.2069 10 10.8332 10.3729 10.833 10.833C10.833 11.2932 11.2068 11.667 11.667 11.667H13.333C13.7932 11.667 14.167 11.2932 14.167 10.833C14.1668 10.3729 13.7931 10 13.333 10H11.667ZM12.5 5C12.5 5.22094 12.588 5.4326 12.7441 5.58887C12.9003 5.74507 13.1121 5.83292 13.333 5.83301H15.4883L12.5 2.84473V5Z" fill="#252727"/>
</svg>
