<svg width="16" height="16" viewBox="0 0 16 16" fill="none" xmlns="http://www.w3.org/2000/svg">
<path fill-rule="evenodd" clip-rule="evenodd" d="M8 0.666748C8.34452 0.666748 8.67751 0.789969 8.93945 1.01375L8.94531 1.01831C10.0383 1.97385 11.5486 2.66675 12.6667 2.66675C13.0202 2.66675 13.3593 2.80742 13.6094 3.05737C13.8593 3.30734 13.9999 3.64664 14 4.00008V8.66675C13.9999 10.5093 13.3472 11.9263 12.2975 13.0033C12.2796 13.0217 12.2603 13.0386 12.2422 13.0567C12.2262 13.0743 12.2093 13.091 12.1914 13.1069C11.1717 14.1069 9.83226 14.7799 8.44596 15.2631L8.44076 15.2651C8.1554 15.3617 7.84579 15.3583 7.5625 15.2566C7.55861 15.2552 7.55467 15.254 7.55078 15.2527C7.54979 15.2523 7.54853 15.2524 7.54753 15.252C6.15939 14.7712 4.82026 14.0989 3.80208 13.099C3.78784 13.086 3.77404 13.0728 3.76107 13.0587C3.74218 13.0398 3.72243 13.0218 3.70378 13.0027C2.7186 11.9937 2.08351 10.6855 2.00781 9.00789L2 8.66675V4.00008C2.00008 3.64664 2.14074 3.30734 2.39062 3.05737C2.64066 2.80742 2.97978 2.66675 3.33333 2.66675L3.54753 2.65894C4.63893 2.57859 6.0357 1.9084 7.05469 1.01831L7.06055 1.01375C7.32249 0.789969 7.65548 0.666748 8 0.666748ZM8.00065 10.6674C7.32041 10.6673 6.65627 10.8756 6.09766 11.2638C5.66 11.568 5.30449 11.9718 5.05664 12.4389C5.84429 13.1007 6.85843 13.6035 7.9974 13.9968C8.00222 13.9985 8.00759 13.9996 8.01237 14.0014C9.14688 13.6055 10.1575 13.1019 10.9434 12.4402C10.6957 11.9731 10.3411 11.5687 9.90365 11.2644C9.34518 10.8759 8.68097 10.6676 8.00065 10.6674ZM8 2.00008C7.97301 2.00008 7.94695 2.00989 7.92643 2.02743L7.92578 2.02677C6.69289 3.10165 4.87999 4.00008 3.33333 4.00008V8.66675L3.33919 8.94149C3.38304 9.93781 3.66704 10.7434 4.11784 11.4102C4.44084 10.9262 4.85357 10.5044 5.33659 10.1687C5.49676 10.0574 5.66313 9.95644 5.83464 9.86662C5.12009 9.25525 4.66667 8.34754 4.66667 7.33342C4.66667 5.49247 6.15905 4.00008 8 4.00008C9.84095 4.00008 11.3333 5.49247 11.3333 7.33342C11.3333 8.34772 10.8795 9.25525 10.1647 9.86662C10.3371 9.95687 10.5044 10.058 10.6654 10.17C11.1477 10.5057 11.559 10.9279 11.8815 11.4115C12.3732 10.6838 12.6666 9.79133 12.6667 8.66675V4.00008C11.1204 4.00008 9.31373 3.10896 8.07357 2.02677C8.05309 2.00938 8.02688 2.00008 8 2.00008ZM8 5.33342C6.89543 5.33342 6 6.22885 6 7.33342C6 8.43798 6.89543 9.33342 8 9.33342C9.10457 9.33342 10 8.43798 10 7.33342C10 6.22885 9.10457 5.33342 8 5.33342Z" fill="#707574"/>
<path d="M8 5.33342C6.89543 5.33342 6 6.22885 6 7.33342C6 8.43798 6.89543 9.33342 8 9.33342C9.10457 9.33342 10 8.43798 10 7.33342C10 6.22885 9.10457 5.33342 8 5.33342Z" fill="#707574"/>
<path d="M8.00065 10.6674C7.32041 10.6673 6.65627 10.8756 6.09766 11.2638C5.66 11.568 5.30449 11.9718 5.05664 12.4389C5.84429 13.1007 6.85843 13.6035 7.9974 13.9968C8.00222 13.9985 8.00759 13.9996 8.01237 14.0014C9.14688 13.6055 10.1575 13.1019 10.9434 12.4402C10.6957 11.9731 10.3411 11.5687 9.90365 11.2644C9.34518 10.8759 8.68097 10.6676 8.00065 10.6674Z" fill="#707574"/>
</svg>
