<svg width="24" height="25" viewBox="0 0 24 25" fill="none" xmlns="http://www.w3.org/2000/svg">
<path d="M11.2929 4.79314C11.6834 4.40261 12.3164 4.40261 12.707 4.79314L19.707 11.7931C19.7548 11.841 19.7975 11.8937 19.8349 11.9504C19.8596 11.9879 19.8812 12.0268 19.9003 12.0666C19.9221 12.1118 19.9411 12.1585 19.956 12.2072C19.9622 12.2275 19.9667 12.2482 19.9716 12.2687C19.9893 12.3431 19.9999 12.4204 19.9999 12.5002C19.9999 12.5832 19.9878 12.6633 19.9687 12.7404C19.9645 12.7573 19.9611 12.7744 19.956 12.7912C19.9411 12.8402 19.9222 12.8873 19.9003 12.9328C19.8803 12.9745 19.8571 13.0148 19.831 13.0539C19.8184 13.0727 19.8048 13.0907 19.791 13.1086C19.7649 13.1424 19.738 13.1762 19.707 13.2072L12.707 20.2072C12.3165 20.5977 11.6834 20.5977 11.2929 20.2072C10.9024 19.8167 10.9024 19.1837 11.2929 18.7931L16.5859 13.5002H4.99994C4.44768 13.5002 3.99998 13.0524 3.99994 12.5002C3.99994 11.9479 4.44765 11.5002 4.99994 11.5002H16.5859L11.2929 6.2072C10.9024 5.81669 10.9024 5.18366 11.2929 4.79314Z" fill="#707574"/>
</svg>
