<svg width="16" height="17" viewBox="0 0 16 17" fill="none" xmlns="http://www.w3.org/2000/svg">
<path fill-rule="evenodd" clip-rule="evenodd" d="M3.44853 2.78636C4.26715 2.47252 5.16192 2.41447 6.01428 2.61969C6.76256 2.7999 7.44737 3.17601 7.99996 3.70628C8.55241 3.17626 9.23699 2.80055 9.98498 2.62034C10.8373 2.41503 11.7321 2.47325 12.5507 2.78701C13.3694 3.10079 14.0735 3.65574 14.5703 4.37816C15.067 5.10056 15.3333 5.95652 15.3333 6.83323L15.33 7.00316C15.2585 8.74526 14.0977 10.0115 13.138 10.9713C13.1354 10.9738 13.1328 10.9765 13.1302 10.9791L9.48108 14.5077C9.29952 14.7082 9.08002 14.8707 8.83394 14.9836C8.57607 15.102 8.29607 15.1648 8.01233 15.1666C7.72859 15.1684 7.44746 15.1091 7.18811 14.994C6.93991 14.8838 6.71688 14.7243 6.53251 14.5253L2.86975 10.9791C2.86717 10.9766 2.86448 10.9738 2.86194 10.9713C1.90274 10.0121 0.741472 8.7519 0.669881 7.00381L0.666626 6.83323C0.666499 5.95644 0.932282 5.10003 1.429 4.37751C1.92569 3.65506 2.62993 3.10023 3.44853 2.78636ZM5.70243 3.91592C5.11228 3.77379 4.49254 3.81385 3.92574 4.03115C3.35902 4.24846 2.87181 4.6332 2.52795 5.13336C2.18413 5.63355 1.99986 6.22627 1.99996 6.83323C1.99998 8.05957 2.79068 9.01375 3.79683 10.0207L7.46871 13.5754C7.4803 13.5866 7.49182 13.5985 7.50256 13.6106C7.56555 13.6811 7.64273 13.7376 7.72913 13.7759C7.81556 13.8143 7.9093 13.8338 8.00387 13.8332C8.09845 13.8326 8.19199 13.8115 8.27795 13.772C8.36385 13.7326 8.44049 13.6754 8.50256 13.6041L8.54163 13.5624L12.2031 10.0207C13.2087 9.0143 13.9999 8.05327 14 6.83323C13.9999 6.22627 13.8159 5.63349 13.472 5.13336C13.128 4.63323 12.6403 4.24903 12.0735 4.0318C11.5068 3.81463 10.8875 3.77446 10.2975 3.91657C9.71082 4.05788 9.18016 4.37291 8.77535 4.82021C8.77413 4.82161 8.77333 4.82338 8.77209 4.82477C8.48747 5.14588 8.2819 5.43091 8.13472 5.68935L9.23694 6.79287C9.42425 6.98037 9.52926 7.23486 9.52926 7.4999C9.52916 7.76491 9.42365 8.01949 9.23629 8.20693L7.94332 9.4999L8.47196 10.0285C8.73196 10.289 8.73166 10.7117 8.47131 10.9719C8.21091 11.2319 7.7888 11.2314 7.5286 10.9713L6.76558 10.2063L6.76493 10.2069C6.60088 10.0428 6.49988 9.82712 6.47717 9.59821L6.47196 9.4999L6.47717 9.40094C6.49989 9.17206 6.60089 8.95696 6.76493 8.79287L8.0579 7.49925L6.85803 6.29808C6.67039 6.11017 6.61195 5.82823 6.70959 5.58128C6.81964 5.3031 6.96593 5.02602 7.151 4.74469C6.75614 4.33796 6.25506 4.04901 5.70243 3.91592Z" fill="#156E58"/>
</svg>
